<svg width="64" height="64" viewBox="0 0 64 64" fill="none" xmlns="http://www.w3.org/2000/svg">
<g clip-path="url(#clip0_2_119)" filter="url(#filter0_d_2_119)">
<g filter="url(#filter1_d_2_119)">
<path d="M32 56C47.464 56 60 43.464 60 28C60 12.536 47.464 0 32 0C16.536 0 4 12.536 4 28C4 43.464 16.536 56 32 56Z" fill="#FC8456"/>
</g>
<path d="M24.6022 15.0825C27.882 16.1041 30.7904 15.7371 33.7371 14.2753C33.5765 13.6116 33.4077 12.9728 33.2681 12.3278C32.5807 9.15387 34.5693 5.97027 37.7151 5.17563C38.635 4.94323 39.4406 5.3042 40.2143 5.5328C41.576 7.37038 41.6618 8.62131 40.6027 10.4347C39.9079 11.6245 38.8603 12.4965 37.8991 13.4458C37.4796 13.8602 36.9392 14.1823 36.7946 14.9606C39.5144 15.9697 42.2303 15.8183 44.9612 15.3323C47.6797 14.8486 50.0841 13.7213 52.0728 11.5956C52.567 12.4536 52.3205 12.988 51.793 13.4917C50.6488 14.5842 49.3131 15.3922 47.8474 15.9322C46.0076 16.6102 44.1302 17.1499 42.1109 16.958C41.2499 16.8762 40.3672 17.0513 39.4982 17.0157C37.9167 16.9509 36.4632 16.3697 34.9297 15.7166C31.3151 17.5477 27.4952 17.6477 23.6049 16.4991C22.5685 17.43 21.6198 18.3674 20.8 19.4632C19.5604 21.1199 17.9325 22.3397 15.9744 23.0546C14.8348 23.4707 13.685 23.9053 12.5019 24.1426C11.3205 24.3797 10.0919 24.3814 8.81566 24.4923C8.12149 24.0288 7.36862 23.5817 6.69069 23.0407C6.47934 22.8722 6.34282 22.4193 6.40677 22.1528C6.46456 21.9123 6.84301 21.7489 7.10968 21.527C7.81102 21.9999 8.42187 22.4119 9.1669 22.9144C13.132 22.8022 16.7972 21.757 19.5547 18.5251C20.3352 17.6103 21.2995 16.8323 21.9008 15.6201C21.6607 15.363 21.4609 15.1107 21.2235 14.901C19.2491 13.159 18.9936 10.5025 20.5356 8.35766C21.4162 7.13283 22.5088 6.33561 24.0337 6.19998C25.4666 6.07252 26.3433 6.67732 26.7373 8.07755C27.0823 9.30328 26.9055 10.4749 26.3382 11.6019C25.7942 12.6831 25.2575 13.7679 24.6022 15.0825ZM39.6231 6.71966C38.7954 6.50115 38.0082 6.47807 37.3951 6.88206C36.5588 7.4331 35.7504 8.09558 35.1126 8.86222C34.2335 9.9186 34.4212 11.825 35.4458 13.5039C36.5152 12.4296 37.5819 11.3996 38.5997 10.3233C39.5415 9.32702 39.7958 8.11764 39.6231 6.71966ZM21.4002 12.9778C21.9247 13.2786 22.1766 14.0193 23.0682 14.0191C23.2882 13.721 23.5643 13.4259 23.7485 13.0816C24.1946 12.2478 24.5518 11.3641 25.0297 10.5503C25.6786 9.44551 25.4899 8.50001 24.6653 7.57904C23.5756 7.36063 22.8963 7.98772 22.2213 8.68739C21.0336 9.91849 21.1656 11.3767 21.4002 12.9778Z" fill="#242424"/>
<path d="M19.3928 39.3846C18.4143 39.4956 17.5482 39.5968 16.6813 39.6912C16.1071 39.7538 15.5798 39.5768 15.1988 39.1754C15.0084 38.9748 15.0038 38.5978 14.875 38.1659C16.2071 38.0903 17.4136 38.1131 18.5879 37.9297C19.8061 37.7394 20.839 37.0758 21.6823 36.1556C22.3604 36.2901 22.4955 36.7334 22.228 37.204C21.9341 37.7213 21.4857 38.1507 21.1043 38.6182C21.1556 40.3623 22.2631 41.4553 23.5584 42.3392C24.9026 43.2565 26.4028 43.8407 28.0413 44.117C32.3116 44.8373 36.3466 44.0222 40.2881 42.4277C41.7203 41.8483 43.2173 41.394 44.2007 40.0902C44.4702 40.2285 44.6392 40.3152 44.7913 40.3931C44.7913 40.5615 44.832 40.7087 44.7848 40.8182C44.4204 41.6641 43.7682 42.2449 42.971 42.6587C42.1913 43.0633 41.411 43.4833 40.5913 43.7904C39.1408 44.3338 37.6708 44.8317 36.1876 45.2779C35.4858 45.489 34.7387 45.6019 34.0054 45.647C31.5087 45.8008 28.9991 45.9265 26.5312 45.4188C23.9257 44.8829 21.7531 43.5994 20.2945 41.3047C19.9425 40.7507 19.7278 40.1093 19.3928 39.3846Z" fill="#242424"/>
<path d="M21.3124 25.4043C22.1356 25.869 22.0282 26.4434 22.1092 26.9685C22.3075 28.255 22.9391 29.1969 24.3018 29.5728C25.5675 28.5037 25.5867 26.9296 26.1111 25.4892H27.129C27.1837 25.9905 27.3466 26.4659 27.2587 26.8892C27.0683 27.8059 26.8216 28.7254 26.468 29.5906C25.7375 31.3777 23.8448 31.8407 22.3436 30.6536C21.0752 29.6505 20.6422 28.2614 20.6765 26.7258C20.6854 26.3202 21.0513 25.9226 21.3124 25.4043Z" fill="#242424"/>
<path d="M34.376 28.1979C37.1132 29.1467 38.0897 30.5125 37.6072 32.6405C37.1881 34.4894 35.5198 36.1044 33.1676 34.8722C32.4049 34.4727 32.1359 33.8616 32.0777 32.8469C32.164 32.7663 32.3545 32.5881 32.4439 32.5044C33.4288 32.5107 33.472 33.2982 33.8472 33.7049C34.0798 33.7571 34.2869 33.869 34.4638 33.8327C35.5636 33.6076 36.0382 33.0821 36.0348 32.0789C36.032 31.252 35.8793 30.4649 35.2262 29.8641C34.9781 29.636 34.7052 29.4146 34.5285 29.1362C34.4111 28.9512 34.4442 28.6707 34.376 28.1979Z" fill="#242424"/>
<path d="M44.9782 22.7754C45.4105 22.6832 45.6538 22.6314 45.9994 22.5577C46.2017 23.2514 46.3859 23.8832 46.5735 24.5271C46.3434 25.1224 46.1317 25.6903 45.905 26.2522C45.1685 28.0774 44.0257 28.802 42.1361 28.576C41.5408 28.5048 40.9627 28.2906 40.4512 28.1608C39.356 26.5536 39.356 26.5536 39.4722 25.2245C39.8605 25.691 40.2047 26.1932 40.6351 26.6051C41.9354 27.8496 43.6329 27.5211 44.4929 25.9241C44.9956 24.9908 45.0918 24.0014 44.9782 22.7754Z" fill="#242424"/>
</g>
<defs>
<filter id="filter0_d_2_119" x="0" y="0" width="64" height="64" filterUnits="userSpaceOnUse" color-interpolation-filters="sRGB">
<feFlood flood-opacity="0" result="BackgroundImageFix"/>
<feColorMatrix in="SourceAlpha" type="matrix" values="0 0 0 0 0 0 0 0 0 0 0 0 0 0 0 0 0 0 127 0" result="hardAlpha"/>
<feOffset dy="4"/>
<feGaussianBlur stdDeviation="2"/>
<feComposite in2="hardAlpha" operator="out"/>
<feColorMatrix type="matrix" values="0 0 0 0 0.682353 0 0 0 0 0.682353 0 0 0 0 0.682353 0 0 0 0.25 0"/>
<feBlend mode="normal" in2="BackgroundImageFix" result="effect1_dropShadow_2_119"/>
<feBlend mode="normal" in="SourceGraphic" in2="effect1_dropShadow_2_119" result="shape"/>
</filter>
<filter id="filter1_d_2_119" x="0" y="0" width="64" height="64" filterUnits="userSpaceOnUse" color-interpolation-filters="sRGB">
<feFlood flood-opacity="0" result="BackgroundImageFix"/>
<feColorMatrix in="SourceAlpha" type="matrix" values="0 0 0 0 0 0 0 0 0 0 0 0 0 0 0 0 0 0 127 0" result="hardAlpha"/>
<feOffset dy="4"/>
<feGaussianBlur stdDeviation="2"/>
<feComposite in2="hardAlpha" operator="out"/>
<feColorMatrix type="matrix" values="0 0 0 0 0.682353 0 0 0 0 0.682353 0 0 0 0 0.682353 0 0 0 0.25 0"/>
<feBlend mode="normal" in2="BackgroundImageFix" result="effect1_dropShadow_2_119"/>
<feBlend mode="normal" in="SourceGraphic" in2="effect1_dropShadow_2_119" result="shape"/>
</filter>
<clipPath id="clip0_2_119">
<rect width="56" height="56" fill="white" transform="translate(4)"/>
</clipPath>
</defs>
</svg>
