<svg width="64" height="64" viewBox="0 0 64 64" fill="none" xmlns="http://www.w3.org/2000/svg">
<g clip-path="url(#clip0_28_118)" filter="url(#filter0_d_28_118)">
<g filter="url(#filter1_d_28_118)">
<path d="M32 56C47.464 56 60 43.464 60 28C60 12.536 47.464 0 32 0C16.536 0 4 12.536 4 28C4 43.464 16.536 56 32 56Z" fill="#FC8456"/>
</g>
<path d="M53.5822 38.3288C54.1539 36.5505 54.6148 34.8591 55.2438 33.2326C55.8843 31.5765 55.3757 30.0068 55.0203 28.4526C54.8306 27.6239 54.1357 26.9454 53.3864 26.434C52.8835 26.0908 52.3784 25.7508 51.8831 25.3969C50.7177 24.5642 50.2825 23.4284 50.5587 22.0354C50.7284 21.1795 50.8651 20.3002 51.1765 19.4933C51.6061 18.3807 51.7099 17.2742 51.5064 15.9283C51.1317 15.5586 50.6639 15.0759 50.1737 14.6171C47.7937 12.3898 44.8828 11.9423 41.9374 13.2919C40.5926 13.908 39.2064 14.433 37.8488 15.0219C36.3379 15.6773 34.7993 15.3699 33.2702 15.1639C32.9625 15.1225 32.6484 14.8954 32.401 14.6806C31.4235 13.8317 30.5418 12.9189 30.0938 11.6426C29.8271 10.8829 29.4299 10.1597 29.0196 9.46254C28.694 8.9096 28.1606 8.63688 27.4847 8.63285C26.727 8.62837 26.0051 8.70912 25.3153 9.05946C22.4771 10.5007 19.8716 12.2431 17.553 14.4597C16.4276 15.5355 15.3032 16.5956 14.3853 17.8427C13.5846 18.9307 12.8757 20.0897 12.1767 21.2479C11.4259 22.492 11.1559 23.8823 11.2721 25.6929C10.7863 25.225 10.4587 25.0581 10.3887 24.8165C10.0765 23.7397 10.2788 22.6707 10.6471 21.645C11.5031 19.2609 12.7678 17.1451 14.5646 15.315C17.0352 12.7987 19.6167 10.4403 22.6856 8.66824C23.5047 8.19526 24.3131 7.67514 25.1875 7.33253C27.3458 6.48693 29.5854 6.88509 30.738 8.7985C31.1915 9.55125 31.6347 10.3105 32.0636 11.0775C32.2613 11.4311 32.3833 11.8283 32.592 12.1741C33.1982 13.1779 34.054 13.7711 35.2785 13.6482C36.1437 13.5614 36.9944 13.5455 37.8296 13.1201C39.0317 12.5078 40.3374 12.1013 41.5898 11.5849C44.2721 10.4788 46.9331 10.7616 49.4214 12.0189C50.6521 12.6409 51.685 13.7151 52.6883 14.7055C53.3797 15.388 53.6044 16.3653 53.4045 17.3454C53.19 18.3978 52.8767 19.4296 52.6382 20.4776C52.4896 21.1307 52.319 21.7954 52.3034 22.4582C52.2812 23.3943 52.6591 24.2081 53.5533 24.6216C56.2723 25.8787 56.8401 28.374 57.2242 30.9603C57.3944 32.1068 57.2033 33.2162 56.7572 34.3147C56.2528 35.5566 55.9328 36.8723 55.4661 38.1312C55.1906 38.874 54.8814 38.8993 53.5822 38.3288Z" fill="#242424"/>
<path d="M44.6643 40.7839C44.5974 42.3797 43.9728 43.661 42.8163 44.7271C41.6274 45.823 40.2361 45.7241 38.7245 45.5635C38.1744 45.168 37.5739 44.7363 37.084 44.384C36.462 43.5089 36.4059 42.445 35.4036 41.8358C33.5968 42.4823 31.6638 42.4088 29.7211 42.0903C28.6376 41.9126 27.6305 41.5335 26.7236 40.9233C26.3951 40.7024 26.0784 40.3911 26.4288 39.9273C31.4029 42.1301 35.5472 42.2169 40.54 36.7351C42.0735 37.8426 44.0631 38.449 44.6643 40.7839ZM36.7907 41.4155C37.6241 42.4558 38.1066 43.6079 39.311 44.161C40.1674 44.1202 41.104 44.2683 41.7749 43.5585C42.3676 42.9315 42.8584 42.2082 43.3196 41.6222C43.1663 40.9177 43.0528 40.3962 42.9632 39.9843C42.2924 39.2189 41.657 38.6361 40.6089 38.6066C40.3549 38.8417 40.0669 39.1083 39.7834 39.3708C40.1831 40.3277 41.5113 40.2814 41.7514 41.2832C41.38 41.9007 40.9128 41.8581 40.5014 41.5696C39.9012 41.1486 39.3592 40.6446 38.705 40.1036C38.0533 40.5502 37.4606 40.9564 36.7907 41.4155Z" fill="#242424"/>
<path d="M23.0163 29.009C21.2294 27.7296 21.2462 26.0406 21.4503 24.3221C21.5196 23.7382 21.6531 23.0878 22.5854 23.0536C22.6118 23.7242 22.6194 24.3806 22.6696 25.0337C22.7053 25.4983 22.7454 25.9743 22.8774 26.4172C23.1567 27.3552 23.8079 27.8862 24.8034 27.9328C25.2728 27.9547 25.7441 27.9366 26.1672 27.9366C26.7312 27.5518 27.2301 27.2113 27.8601 26.7813C28.1025 25.9292 28.374 24.9747 28.6584 23.9751C28.8997 23.9979 29.163 23.9456 29.2524 24.0468C29.4635 24.2859 29.7571 24.6163 29.7283 24.8778C29.3992 27.8641 27.4923 29.5929 24.5922 29.3633C24.0614 29.3213 23.5423 29.1312 23.0163 29.009Z" fill="#242424"/>
<path d="M39.9426 23.3134C40.3819 24.5193 40.7489 25.5901 41.1619 26.6428C41.547 27.624 42.175 27.9904 43.2131 27.9166C44.1578 27.8494 44.7897 27.2942 44.9907 26.2759C45.0799 25.8233 45.0623 25.3496 45.091 24.9181C45.8383 24.6035 46.1048 24.6592 46.2177 25.1169C46.5957 26.6507 46.1313 27.9332 44.9582 28.9298C44.3754 29.4248 43.6311 29.5889 42.8556 29.4038C42.266 29.263 41.6806 29.1045 41.1451 28.9672C39.6218 27.8975 39.3615 26.2762 39.1117 24.6766C39.0317 24.1649 39.1805 23.6217 39.9426 23.3134Z" fill="#242424"/>
<path d="M32.6087 34.0628C33.2204 33.5696 33.668 33.2087 33.9837 32.9541C34.3389 31.2081 32.7573 30.7945 32.179 29.624C32.4379 29.4732 32.767 29.1405 32.932 29.2081C34.1404 29.7033 35.2245 30.3848 35.5868 31.7628C35.7839 32.5124 35.6721 33.1933 35.1997 33.8752C34.707 34.5863 34.0446 35.029 33.3122 35.3593C32.1437 35.8864 31.122 35.3053 30.8742 34.0508C30.7225 33.2836 30.7263 32.5561 31.4742 32.0553C31.9683 31.9832 32.2493 32.2436 32.3647 32.682C32.4631 33.0564 32.5029 33.4461 32.6087 34.0628Z" fill="#242424"/>
</g>
<defs>
<filter id="filter0_d_28_118" x="0" y="0" width="64" height="64" filterUnits="userSpaceOnUse" color-interpolation-filters="sRGB">
<feFlood flood-opacity="0" result="BackgroundImageFix"/>
<feColorMatrix in="SourceAlpha" type="matrix" values="0 0 0 0 0 0 0 0 0 0 0 0 0 0 0 0 0 0 127 0" result="hardAlpha"/>
<feOffset dy="4"/>
<feGaussianBlur stdDeviation="2"/>
<feComposite in2="hardAlpha" operator="out"/>
<feColorMatrix type="matrix" values="0 0 0 0 0.682353 0 0 0 0 0.682353 0 0 0 0 0.682353 0 0 0 0.25 0"/>
<feBlend mode="normal" in2="BackgroundImageFix" result="effect1_dropShadow_28_118"/>
<feBlend mode="normal" in="SourceGraphic" in2="effect1_dropShadow_28_118" result="shape"/>
</filter>
<filter id="filter1_d_28_118" x="0" y="0" width="64" height="64" filterUnits="userSpaceOnUse" color-interpolation-filters="sRGB">
<feFlood flood-opacity="0" result="BackgroundImageFix"/>
<feColorMatrix in="SourceAlpha" type="matrix" values="0 0 0 0 0 0 0 0 0 0 0 0 0 0 0 0 0 0 127 0" result="hardAlpha"/>
<feOffset dy="4"/>
<feGaussianBlur stdDeviation="2"/>
<feComposite in2="hardAlpha" operator="out"/>
<feColorMatrix type="matrix" values="0 0 0 0 0.682353 0 0 0 0 0.682353 0 0 0 0 0.682353 0 0 0 0.25 0"/>
<feBlend mode="normal" in2="BackgroundImageFix" result="effect1_dropShadow_28_118"/>
<feBlend mode="normal" in="SourceGraphic" in2="effect1_dropShadow_28_118" result="shape"/>
</filter>
<clipPath id="clip0_28_118">
<rect width="56" height="56" fill="white" transform="translate(4)"/>
</clipPath>
</defs>
</svg>
