<svg width="64" height="64" viewBox="0 0 64 64" fill="none" xmlns="http://www.w3.org/2000/svg">
<g clip-path="url(#clip0_28_403)" filter="url(#filter0_d_28_403)">
<g filter="url(#filter1_d_28_403)">
<path d="M51.7897 48.1701C62.7227 37.7359 62.7227 20.8188 51.7897 10.3847C40.8566 -0.0494618 23.1307 -0.0494618 12.1977 10.3847C1.26464 20.8188 1.26464 37.7359 12.1977 48.1701C23.1307 58.6042 40.8566 58.6042 51.7897 48.1701Z" fill="#FDB9A1"/>
</g>
<path d="M34.6379 29.1851C33.1873 28.9896 31.8007 28.8028 30.2354 28.592C29.779 28.9774 29.526 29.6555 29.3003 30.3021C28.8534 31.5826 27.8797 32.4755 26.974 33.428C26.1303 34.3152 24.9362 34.4858 23.8246 34.6146C21.9542 34.8313 20.0653 34.9207 18.2068 34.3219C16.1942 33.6735 15.0416 32.307 14.7415 30.4093C14.4467 28.546 14.8257 26.6918 15.352 24.8606C15.8077 23.2746 16.9781 22.2397 18.3391 21.6219C21.6698 20.1096 24.534 20.0365 27.6192 22.848C28.822 23.9441 29.7662 25.1552 29.8924 26.7344C31.6016 27.515 32.2747 27.6336 35.1433 27.6774C35.2459 27.5599 35.424 27.4369 35.4851 27.2739C36.2778 25.1592 38.182 23.9159 39.7469 22.4359C40.6481 21.5836 42.0304 21.7643 43.2252 21.7274C46.0332 21.6407 47.9694 22.957 49.2066 25.3056C49.3582 25.5937 49.5372 25.8711 49.7275 26.1377C50.9262 27.8168 50.7552 29.5523 49.8823 31.265C48.7657 33.4559 47.0287 34.9854 44.4876 35.58C44.0291 35.6873 43.5688 35.7995 43.126 35.953C41.2071 36.618 39.3381 36.274 37.6177 35.4658C35.8295 34.6259 34.7021 33.2005 34.6411 31.1886C34.6217 30.5536 34.6379 29.9178 34.6379 29.1851ZM49.0545 27.9461C48.4369 26.9812 47.8645 26.0302 47.2323 25.1169C46.6993 24.3466 45.9596 23.7883 45.0124 23.5344C44.1735 23.3095 43.3521 23.2277 42.4424 23.2806C41.4353 23.3393 40.6135 23.4757 39.9112 24.1678C39.7756 24.3015 39.5441 24.3421 39.3903 24.4642C37.2201 26.1871 36.1559 28.4221 36.2728 31.0915C36.3395 32.617 37.206 33.7439 38.7225 34.383C39.8885 34.8744 41.1137 34.8851 42.3226 34.7788C45.2287 34.5236 47.3671 33.2008 48.6398 30.6012C49.08 29.7023 48.7619 28.8224 49.0545 27.9461ZM21.8395 33.2359C22.379 33.2123 23.0561 33.1947 23.7314 33.1503C24.7752 33.0816 25.6116 32.6992 26.4309 32.0032C27.2963 31.2681 27.6645 30.3572 28.139 29.4396C28.999 27.7764 28.4737 26.3223 27.5008 24.9228C26.574 23.5895 25.3592 22.6058 23.6599 22.3113C22.1878 22.0562 20.7755 21.9944 19.4109 22.8765C17.9261 23.8363 16.9733 25.0355 16.5832 26.7173C16.3444 27.7469 16.2923 28.7587 16.3742 29.793C16.5235 31.6806 17.712 32.8846 19.6762 33.1037C20.3476 33.1785 21.0269 33.1883 21.8395 33.2359Z" fill="#242424"/>
<path d="M34.2886 6.15212C34.1643 6.27964 34.0335 6.41379 33.8829 6.56814C33.2195 6.54516 32.7669 6.17275 32.2941 5.80206C30.7295 4.57508 28.2552 4.42607 26.6591 5.52415C25.8421 6.08617 25.0825 6.74408 24.3836 7.43779C23.2951 8.51801 23.0783 9.7884 23.6559 11.2035C24.0813 12.2457 24.7373 13.1038 25.5355 13.919C27.1337 15.5512 29.0009 16.7925 31.1301 17.6803C31.6129 17.8816 32.166 18.0217 32.6889 18.0282C35.3984 18.062 38.112 18.1216 40.8175 18.0176C42.9233 17.9366 44.9876 17.5255 46.7528 16.2907C47.284 15.919 47.7942 15.52 48.4991 14.9962C48.0209 14.7862 47.7471 14.6539 47.4637 14.5438C46.2274 14.0631 45.2218 13.3672 44.8267 12.0532C45.5859 10.2209 47.0979 10.0221 48.7694 10.2575C49.9547 10.7815 50.3811 11.8509 51.0389 12.8341C54.0331 11.7459 56.2381 9.92275 57.0106 6.98543C57.6207 4.66583 57.1487 2.31672 53.6705 1.26568C51.9403 0.742773 50.2859 0.994818 48.7046 1.5345C46.3722 2.33051 44.3994 3.67272 43.021 5.71356C42.4401 6.57359 41.8148 7.40872 41.1672 8.22439C40.8429 8.63303 40.4596 9.01644 40.0395 9.33508C39.0595 10.0784 38.2459 10.0202 36.8048 9.06048C38.6569 9.34683 39.6005 8.45196 40.4192 7.22423C41.2159 6.0292 42.1029 4.87758 43.0606 3.79596C43.6175 3.16692 44.3566 2.66454 45.075 2.18952C46.9392 0.956766 48.9584 0.075997 51.2754 0.00716026C53.0568 -0.04575 54.7175 0.177114 56.257 1.24216C58.1003 2.51746 58.7513 4.25441 58.7511 6.25185C58.7508 8.5162 57.5217 10.2952 55.8183 11.7619C54.6666 12.7536 53.4394 13.6616 51.8613 14.0195C51.2011 14.1693 50.6753 14.548 50.2515 15.1182C48.3181 17.7199 45.5082 18.839 42.3086 19.2026C39.7682 19.4913 37.2137 19.5232 34.6544 19.5284C31.6759 19.5344 29.0951 18.5763 26.7909 16.8569C25.2959 15.7414 24.0329 14.414 22.9467 12.92C21.8972 11.4763 21.8805 9.89528 22.1252 8.26821C22.1708 7.9654 22.3427 7.63073 22.5646 7.40979C23.4952 6.48284 24.4091 5.52789 25.4358 4.70431C27.5936 2.97345 29.9955 3.47059 32.3713 4.20342C32.9621 4.38567 33.5723 5.10236 34.2886 6.15212ZM46.2911 11.9222C47.5245 13.6027 48.1369 13.78 49.387 12.7887C49.1191 12.0756 48.8279 11.3333 47.941 11.1425C47.2281 10.9891 46.6587 11.3167 46.2911 11.9222Z" fill="#242424"/>
<path d="M41.061 40.493C41.1249 40.8404 41.2702 41.1155 41.1883 41.2973C41.0339 41.6392 40.8169 42.033 40.5043 42.2175C39.661 42.7152 38.8011 43.288 37.8633 43.5203C35.0224 44.2242 32.1447 44.4336 29.3463 43.2979C28.0583 42.7752 26.9647 42.0429 27.0124 40.4859C27.0161 40.3652 27.0941 40.2465 27.1819 40.005C27.4647 40.1772 27.7924 40.2809 27.9663 40.4973C29.7563 42.7233 32.2025 42.9994 34.8665 42.66C35.1997 42.6175 35.5325 42.5383 35.8659 42.5358C37.561 42.5226 39.0083 41.9471 40.2553 40.8612C40.4352 40.7048 40.711 40.6484 41.061 40.493Z" fill="#242424"/>
<path d="M33.7136 37.2936C32.0807 38.3945 32.0807 38.3945 29.9716 38.1333C29.1779 37.626 28.8979 36.8718 28.9361 35.9744C28.9556 35.5164 28.9498 35.0464 29.6498 34.8486C29.7825 34.9968 30.018 35.1541 30.091 35.3631C30.2385 35.7856 30.2978 36.2363 30.4221 36.8065C30.9296 36.8706 31.4296 36.9338 32.0001 37.006C32.126 36.5903 32.3311 36.2738 32.2876 35.9921C32.1304 34.9724 31.8886 33.9645 31.6812 32.9517C31.6322 32.7124 31.5929 32.4714 31.5562 32.2709C32.087 31.8079 32.6119 31.8782 32.787 32.364C33.3525 33.9327 34.1471 35.4834 33.7136 37.2936Z" fill="#242424"/>
<path d="M43.4048 27.382C43.5321 27.5564 43.6283 27.649 43.6751 27.7605C43.7747 27.9976 43.8485 28.2446 43.99 28.6523C43.7066 29.102 43.4545 29.7155 43.0118 30.1534C42.3612 30.7972 41.407 30.4549 41.1696 29.5867C40.9505 28.7854 41.0171 28.0641 41.8584 27.382H43.4048Z" fill="#242424"/>
<path d="M22.7154 29.2597C20.5137 29.0453 20.0264 28.2304 21.0326 26.3881C21.9831 26.0314 22.869 26.0623 23.4897 26.9746C23.6571 27.2207 23.6862 27.5829 23.6893 27.8927C23.6934 28.2993 23.5779 28.4068 22.7154 29.2597Z" fill="black"/>
</g>
<defs>
<filter id="filter0_d_28_403" x="0" y="0" width="64" height="64" filterUnits="userSpaceOnUse" color-interpolation-filters="sRGB">
<feFlood flood-opacity="0" result="BackgroundImageFix"/>
<feColorMatrix in="SourceAlpha" type="matrix" values="0 0 0 0 0 0 0 0 0 0 0 0 0 0 0 0 0 0 127 0" result="hardAlpha"/>
<feOffset dy="4"/>
<feGaussianBlur stdDeviation="2"/>
<feComposite in2="hardAlpha" operator="out"/>
<feColorMatrix type="matrix" values="0 0 0 0 0.682353 0 0 0 0 0.682353 0 0 0 0 0.682353 0 0 0 0.25 0"/>
<feBlend mode="normal" in2="BackgroundImageFix" result="effect1_dropShadow_28_403"/>
<feBlend mode="normal" in="SourceGraphic" in2="effect1_dropShadow_28_403" result="shape"/>
</filter>
<filter id="filter1_d_28_403" x="-0.00209808" y="2.55908" width="63.9915" height="61.4366" filterUnits="userSpaceOnUse" color-interpolation-filters="sRGB">
<feFlood flood-opacity="0" result="BackgroundImageFix"/>
<feColorMatrix in="SourceAlpha" type="matrix" values="0 0 0 0 0 0 0 0 0 0 0 0 0 0 0 0 0 0 127 0" result="hardAlpha"/>
<feOffset dy="4"/>
<feGaussianBlur stdDeviation="2"/>
<feComposite in2="hardAlpha" operator="out"/>
<feColorMatrix type="matrix" values="0 0 0 0 0.682353 0 0 0 0 0.682353 0 0 0 0 0.682353 0 0 0 0.25 0"/>
<feBlend mode="normal" in2="BackgroundImageFix" result="effect1_dropShadow_28_403"/>
<feBlend mode="normal" in="SourceGraphic" in2="effect1_dropShadow_28_403" result="shape"/>
</filter>
<clipPath id="clip0_28_403">
<rect width="56" height="56" fill="white" transform="translate(4)"/>
</clipPath>
</defs>
</svg>
