<svg width="64" height="64" viewBox="0 0 64 64" fill="none" xmlns="http://www.w3.org/2000/svg">
<g clip-path="url(#clip0_28_146)" filter="url(#filter0_d_28_146)">
<g filter="url(#filter1_d_28_146)">
<path d="M31.5988 56C46.8412 56 59.1976 43.9662 59.1976 29.1218C59.1976 14.2774 46.8412 2.24368 31.5988 2.24368C16.3564 2.24368 4 14.2774 4 29.1218C4 43.9662 16.3564 56 31.5988 56Z" fill="#FDB9A1"/>
</g>
<path d="M16.5388 7.93011C16.001 7.53744 15.9446 7.10681 16.0832 6.63691C16.39 5.59786 17.0103 4.75296 17.9166 4.14999C18.627 3.67726 19.3862 3.26267 20.1601 2.89454C21.4143 2.29789 22.7007 1.76582 23.969 1.19667C25.6953 0.422013 27.5687 0.184774 29.4107 0.0169065C30.6449 -0.0955503 31.8914 0.364857 32.9739 1.07865C34.7381 2.24205 36.5177 3.38298 38.3477 4.57037C39.3265 4.75951 40.2513 4.34109 41.1877 4.0119C41.5628 3.88003 41.9083 3.67028 42.2762 3.51637C44.5516 2.56491 46.4442 3.34 48.1055 4.84546C48.6786 5.36477 49.0913 6.06361 49.5253 6.71338C49.888 7.25635 50.1394 7.8699 50.5037 8.41146C51.0305 9.1943 51.7462 9.76694 52.7123 9.97724C53.6438 10.1798 54.4371 10.0138 54.962 9.15067C55.098 8.92706 55.258 8.71742 55.4074 8.50156C56.4064 7.05926 56.0145 5.57954 54.406 4.81317C54.0507 4.64389 53.6402 4.58837 53.268 4.44799C52.7413 4.24925 52.4649 3.80095 52.5871 3.40152C52.7011 3.02848 53.2414 2.64115 53.6918 2.74554C54.3325 2.89399 55.0253 3.04299 55.5536 3.39443C56.8735 4.2727 57.7619 5.45116 57.7244 7.11848C57.7078 7.85681 57.5084 8.52817 57.0809 9.13485C56.8548 9.45575 56.6044 9.76116 56.3897 10.0889C55.7424 11.0777 54.9257 11.7667 53.6252 11.7132C53.3722 11.7027 53.1135 11.8279 52.857 11.8905C52.0274 11.5804 51.22 11.2785 50.3613 10.9574C49.491 9.94714 48.5302 8.98095 47.9675 7.6788C47.6695 6.98912 47.061 6.39858 46.5034 5.84928C45.32 4.68326 43.9927 4.53045 42.5016 5.2979C40.5471 6.30369 40.0261 6.42749 37.7516 6.37655C36.2355 5.36509 34.5514 4.31175 32.9471 3.1537C30.9009 1.67671 28.7473 1.42649 26.3254 2.12435C24.7181 2.58738 23.1888 3.19013 21.6754 3.86258C21.1905 4.07789 20.7157 4.33749 20.2072 4.47515C18.532 4.92825 17.4285 5.95497 16.8113 7.51574C16.7656 7.63212 16.6721 7.73094 16.5388 7.93011Z" fill="#242424"/>
<path d="M34.8861 26.7284C36.3864 26.2561 36.3864 26.2561 37.2871 24.9349C37.7219 25.1288 38.1778 25.3322 38.6708 25.5522C39.324 25.4606 39.6102 24.9596 39.825 24.393C40.0222 23.8728 39.9212 23.3945 39.6892 22.8917C39.188 21.8046 38.5056 20.8704 37.5274 20.1468C37.2709 19.957 37.0258 19.7526 36.8415 19.6073C36.7781 18.9845 37.0633 18.7894 37.6784 18.7454C39.5104 19.8283 40.6138 21.5413 41.1645 23.6129C41.2703 24.0109 41.1739 24.5473 40.972 24.9168C40.6044 25.5893 40.088 26.1847 39.64 26.8034C38.9261 26.7719 38.3377 26.746 37.7394 26.7196C36.1151 28.6485 34.6327 28.7883 32.5727 26.7481C31.9844 26.958 31.3923 27.2684 30.7659 27.3632C30.205 27.4481 29.6063 27.2955 29.1365 27.2569C28.5454 26.5864 28.0761 26.0552 28.141 25.2505C28.2467 23.9399 28.9752 22.9423 29.8293 22.019C30.0058 21.8282 30.3739 21.8053 30.8591 21.6315C30.6697 22.8915 30.0113 23.7414 29.7478 24.865C29.8462 25.1503 29.9887 25.5634 30.122 25.9499C30.9648 25.9693 31.45 25.4831 32.0196 25.1631C32.7325 24.7625 33.274 24.8285 33.8152 25.3989C34.2132 25.8184 34.5441 26.2985 34.8861 26.7284Z" fill="#242424"/>
<path d="M26.4101 29.0568C26.5763 30.5613 26.9758 31.6846 27.7717 32.699C28.6615 33.8334 29.6951 34.5525 31.2071 34.7827C33.485 35.1296 35.5449 34.8532 37.4349 33.517C37.7207 33.315 38.1424 33.2951 38.6497 33.1478C38.6949 33.5842 38.862 33.9736 38.7293 34.1559C38.394 34.6162 37.9922 35.1225 37.4919 35.356C36.6657 35.7416 35.7566 36.0031 34.8542 36.1797C33.2895 36.4861 31.7106 36.6007 30.1451 36.0903C28.6702 35.6096 27.279 35.0533 26.5398 33.5671C26.2215 32.9272 25.7359 32.3588 25.4726 31.7022C25.2394 31.1204 25.209 30.4615 25.0629 29.7009C24.0657 30.4394 22.9915 30.3461 21.9374 30.2786C21.3496 30.241 20.9949 29.8711 20.9112 29.1746C21.0951 29.0665 21.3262 28.8113 21.5159 28.8376C23.4817 29.1105 25.1346 28.3193 26.9159 27.2811C26.9227 27.6506 26.9878 27.8839 26.9174 28.0683C26.7805 28.4274 26.5677 28.7591 26.4101 29.0568Z" fill="#242424"/>
<path d="M58.5392 11.4449C59.1573 10.9745 59.6103 11.1208 59.7948 11.6005C59.9722 12.0617 60.0513 12.6231 59.9648 13.105C59.5502 15.4204 57.4424 16.9851 55.2329 17.0334C53.4583 17.0722 52.0358 16.3396 50.6891 15.4151C50.1962 15.0767 49.7213 14.4816 50.1832 13.7491C50.8306 13.6518 51.2043 14.0774 51.5565 14.4192C52.4248 15.2617 53.5145 15.4913 54.651 15.5546C56.8967 15.6797 58.3763 14.2989 58.4609 12.0695C58.4682 11.8794 58.5075 11.6903 58.5392 11.4449Z" fill="#242424"/>
<path d="M22.8301 15.2806C22.9875 14.7113 23.1427 14.1498 23.289 13.6205C24.0985 12.8386 25.0679 12.7321 26.0952 12.7914C26.7718 12.8305 27.1793 13.2202 27.4963 13.7252C27.5273 13.8693 27.5682 13.9936 27.5795 14.1206C27.761 16.1771 25.8407 16.8595 24.1938 16.7517C23.4093 16.7003 23.0637 16.1481 22.8301 15.2806Z" fill="#242424"/>
<path d="M41.3055 17.0646C40.7122 16.0331 41.0051 15.2056 41.6113 14.2841C42.0085 14.1625 42.5023 13.9395 43.0182 13.8684C44.0288 13.7291 44.8473 14.0743 45.3905 14.9632C45.9966 15.9552 45.6361 17.0752 44.5547 17.5542C43.3857 18.0721 42.3452 17.7951 41.3055 17.0646Z" fill="black"/>
</g>
<defs>
<filter id="filter0_d_28_146" x="0" y="0" width="64" height="64" filterUnits="userSpaceOnUse" color-interpolation-filters="sRGB">
<feFlood flood-opacity="0" result="BackgroundImageFix"/>
<feColorMatrix in="SourceAlpha" type="matrix" values="0 0 0 0 0 0 0 0 0 0 0 0 0 0 0 0 0 0 127 0" result="hardAlpha"/>
<feOffset dy="4"/>
<feGaussianBlur stdDeviation="2"/>
<feComposite in2="hardAlpha" operator="out"/>
<feColorMatrix type="matrix" values="0 0 0 0 0.682353 0 0 0 0 0.682353 0 0 0 0 0.682353 0 0 0 0.25 0"/>
<feBlend mode="normal" in2="BackgroundImageFix" result="effect1_dropShadow_28_146"/>
<feBlend mode="normal" in="SourceGraphic" in2="effect1_dropShadow_28_146" result="shape"/>
</filter>
<filter id="filter1_d_28_146" x="0" y="2.24368" width="63.1976" height="61.7563" filterUnits="userSpaceOnUse" color-interpolation-filters="sRGB">
<feFlood flood-opacity="0" result="BackgroundImageFix"/>
<feColorMatrix in="SourceAlpha" type="matrix" values="0 0 0 0 0 0 0 0 0 0 0 0 0 0 0 0 0 0 127 0" result="hardAlpha"/>
<feOffset dy="4"/>
<feGaussianBlur stdDeviation="2"/>
<feComposite in2="hardAlpha" operator="out"/>
<feColorMatrix type="matrix" values="0 0 0 0 0.682353 0 0 0 0 0.682353 0 0 0 0 0.682353 0 0 0 0.25 0"/>
<feBlend mode="normal" in2="BackgroundImageFix" result="effect1_dropShadow_28_146"/>
<feBlend mode="normal" in="SourceGraphic" in2="effect1_dropShadow_28_146" result="shape"/>
</filter>
<clipPath id="clip0_28_146">
<rect width="56" height="56" fill="white" transform="translate(4)"/>
</clipPath>
</defs>
</svg>
