<svg width="18" height="20" viewBox="0 0 18 20" fill="none" xmlns="http://www.w3.org/2000/svg">
<g id="&#227;&#131;&#172;&#227;&#130;&#164;&#227;&#131;&#164;&#227;&#131;&#188;_1">
<g id="Group">
<g id="logo">
<path id="Vector" d="M16.3097 17.5506C16.7471 17.5506 17.1018 17.1927 17.1018 16.7511V8.91994C17.1018 8.89391 17.1018 8.86679 17.1018 8.84075C17.1018 4.03507 13.2089 0.146044 8.43151 0.211132C3.82605 0.275136 0.066441 4.06761 0.000878968 8.716C-0.0668326 13.5401 3.78628 17.4725 8.55081 17.4725C9.53102 17.4725 10.4736 17.3055 11.3506 16.9985C11.7247 16.8683 12.1137 17.1525 12.1137 17.5517H16.3097V17.5506ZM9.2634 12.2839C9.03339 12.3317 8.79479 12.3577 8.55081 12.3577C8.30684 12.3577 8.06823 12.3317 7.83823 12.2839C6.25614 11.952 5.06635 10.5374 5.06635 8.84184C5.06635 6.89895 6.62694 5.3249 8.55081 5.3249C10.4747 5.3249 12.0353 6.89895 12.0353 8.84184C12.0353 10.5374 10.8455 11.9531 9.2634 12.2839Z" fill="#FB4F14"/>
<path id="Vector_2" d="M16.3892 18.1907H12.8263C12.39 18.1907 12.0342 18.5487 12.0342 18.9902C12.0342 19.4317 12.3889 19.7897 12.8263 19.7897H16.3892C16.8256 19.7897 17.1814 19.4317 17.1814 18.9902C17.1814 18.5487 16.8267 18.1907 16.3892 18.1907Z" fill="#FB4F14"/>
</g>
</g>
</g>
</svg>
